# xmcd
#
# Track frame offsets:
#	150
#	15643
#	30891
#	45986
#	53813
#	64915
#	80833
#	97809
#	114564
#	129349
#	143803
#	156440
#	173350
#	189238
#	193993
#
# Disc length: 3634
#
# Revision: 1
# Processed by: cddbd v1.5.1PL0 Copyright (c) Steve Scherf et al.
# Submitted via: CDex 1.51
# Normalized: r0:DSETVAR1
#
DISCID=bb0e300f
DTITLE=Various Artist - Compilasian
DYEAR=2003
DGENRE=New Age
TTITLE0=My Dream - Ganges Orchestra
TTITLE1=Mysteries Of The East - Jhalib
TTITLE2=The Calling - Ganges Orchestra
TTITLE3=Wave Speak - Sheila Chandra and The Ganges Orchestra
TTITLE4=11 - Sheila Chandra and The Ganges Orchestra
TTITLE5=Elegy For India - Ganges Orchestra
TTITLE6=Ama - Ganges Orchestra
TTITLE7=Ever So Lonely (EP Version) - Monsoon
TTITLE8=Can't Face The Night - East West
TTITLE9=Ximerre Mix - East West
TTITLE10=O.U.R. - Sheila Chandra
TTITLE11=Crescent Silver Scythe - Sheila Chandra
TTITLE12=Come Home - Sheila Chandra
TTITLE13=Unannounced - Sheila Chandra and The Ganges Orchestra
TTITLE14=ContempASIAN 9 - Sheila Chandra and The Ganges Orchestra
EXTD=YEAR: 2003
EXTT0=
EXTT1=
EXTT2=
EXTT3=
EXTT4=
EXTT5=
EXTT6=
EXTT7=
EXTT8=
EXTT9=
EXTT10=
EXTT11=
EXTT12=
EXTT13=
EXTT14=
PLAYORDER=
